<?xml version="1.0" encoding="UTF-8"?>
<!DOCTYPE svg PUBLIC "-//W3C//DTD SVG 1.1//EN" "http://www.w3.org/Graphics/SVG/1.1/DTD/svg11.dtd">
<svg xmlns="http://www.w3.org/2000/svg" version="1.1" width="1000px" height="1000px" style="shape-rendering:geometricPrecision; text-rendering:geometricPrecision; image-rendering:optimizeQuality; fill-rule:evenodd; clip-rule:evenodd" xmlns:xlink="http://www.w3.org/1999/xlink">
<g><path style="opacity:1" fill="#000000" d="M -0.5,-0.5 C 332.833,-0.5 666.167,-0.5 999.5,-0.5C 999.5,332.833 999.5,666.167 999.5,999.5C 666.167,999.5 332.833,999.5 -0.5,999.5C -0.5,666.167 -0.5,332.833 -0.5,-0.5 Z"/></g>
<g><path style="opacity:1" fill="#f6f6f6" d="M 418.5,319.5 C 417.504,304.676 417.171,289.676 417.5,274.5C 446.85,250.322 468.516,220.489 482.5,185C 497.163,184.5 511.83,184.333 526.5,184.5C 540.075,219.909 561.575,249.575 591,273.5C 591.667,421.833 591.667,570.167 591,718.5C 559.861,743.765 537.861,775.432 525,813.5C 511.23,814.822 497.396,814.822 483.5,813.5C 471.259,775.435 449.426,744.102 418,719.5C 417.167,603.165 417.333,486.832 418.5,370.5C 431.469,365.6 443.636,359.266 455,351.5C 455.333,468.167 455.667,584.833 456,701.5C 475.386,719.637 491.386,740.304 504,763.5C 516.94,740.548 532.94,719.881 552,701.5C 552.667,564.5 552.667,427.5 552,290.5C 533.302,272.313 517.468,251.98 504.5,229.5C 483.674,266.992 455.008,296.992 418.5,319.5 Z"/></g>
<g><path style="opacity:1" fill="#5b5b5b" d="M 417.5,274.5 C 417.171,289.676 417.504,304.676 418.5,319.5C 418.44,320.043 418.107,320.376 417.5,320.5C 416.174,305.005 416.174,289.672 417.5,274.5 Z"/></g>
<g><path style="opacity:1" fill="#f8f8f8" d="M 604.5,283.5 C 632.723,299.517 663.056,309.017 695.5,312C 729.185,342.567 751.518,380.067 762.5,424.5C 749.876,426.481 736.876,427.148 723.5,426.5C 714.554,396.764 699.554,370.598 678.5,348C 665.635,346.432 652.968,343.932 640.5,340.5C 640.5,444.5 640.5,548.5 640.5,652.5C 652.889,649.88 665.222,647.047 677.5,644C 696.586,623.41 710.92,599.91 720.5,573.5C 733.876,572.852 746.876,573.519 759.5,575.5C 747.856,614.803 727.523,648.803 698.5,677.5C 683.551,682.791 668.218,686.624 652.5,689C 635.607,693.952 619.607,700.786 604.5,709.5C 603.167,567.5 603.167,425.5 604.5,283.5 Z"/></g>
<g><path style="opacity:1" fill="#f8f8f8" d="M 404.5,282.5 C 404.5,327.5 404.5,372.5 404.5,417.5C 392.167,417.5 379.833,417.5 367.5,417.5C 367.833,391.491 367.5,365.491 366.5,339.5C 365.893,339.624 365.56,339.957 365.5,340.5C 353.556,343.088 341.556,345.588 329.5,348C 295.905,385.242 277.572,429.075 274.5,479.5C 317.663,480.499 360.997,480.832 404.5,480.5C 404.5,556.833 404.5,633.167 404.5,709.5C 375.603,693.369 344.603,683.536 311.5,680C 282.318,651.812 261.651,618.312 249.5,579.5C 262.837,579.333 276.171,579.5 289.5,580C 299.041,603.758 312.374,625.091 329.5,644C 341.516,646.454 353.516,648.954 365.5,651.5C 365.56,652.043 365.893,652.376 366.5,652.5C 367.5,607.505 367.833,562.505 367.5,517.5C 323.833,517.5 280.167,517.5 236.5,517.5C 230.686,444.784 251.186,380.784 298,325.5C 302.199,320.966 306.699,316.799 311.5,313C 335.689,308.702 359.356,302.369 382.5,294C 390.018,290.409 397.351,286.576 404.5,282.5 Z"/></g>
<g><path style="opacity:1" fill="#8e8e8e" d="M 404.5,282.5 C 405.499,327.664 405.832,372.997 405.5,418.5C 392.5,418.5 379.5,418.5 366.5,418.5C 366.831,392.328 366.498,366.328 365.5,340.5C 365.56,339.957 365.893,339.624 366.5,339.5C 367.5,365.491 367.833,391.491 367.5,417.5C 379.833,417.5 392.167,417.5 404.5,417.5C 404.5,372.5 404.5,327.5 404.5,282.5 Z"/></g>
<g><path style="opacity:1" fill="#838383" d="M 762.5,424.5 C 763.404,425.209 763.737,426.209 763.5,427.5C 749.99,427.829 736.656,427.496 723.5,426.5C 736.876,427.148 749.876,426.481 762.5,424.5 Z"/></g>
<g><path style="opacity:1" fill="#bcbcbc" d="M 604.5,283.5 C 603.167,425.5 603.167,567.5 604.5,709.5C 604.44,710.043 604.107,710.376 603.5,710.5C 602.167,567.833 602.167,425.167 603.5,282.5C 604.107,282.624 604.44,282.957 604.5,283.5 Z"/></g>
<g><path style="opacity:1" fill="#9e9e9e" d="M 236.5,517.5 C 280.167,517.5 323.833,517.5 367.5,517.5C 367.833,562.505 367.5,607.505 366.5,652.5C 365.893,652.376 365.56,652.043 365.5,651.5C 366.499,607.336 366.832,563.003 366.5,518.5C 322.997,518.832 279.663,518.499 236.5,517.5 Z"/></g>
<g><path style="opacity:1" fill="#757575" d="M 274.5,479.5 C 318.167,479.5 361.833,479.5 405.5,479.5C 405.833,556.904 405.5,633.571 404.5,709.5C 404.5,633.167 404.5,556.833 404.5,480.5C 360.997,480.832 317.663,480.499 274.5,479.5 Z"/></g>
<g><path style="opacity:1" fill="#c3c3c3" d="M 720.5,573.5 C 733.656,572.504 746.99,572.171 760.5,572.5C 760.737,573.791 760.404,574.791 759.5,575.5C 746.876,573.519 733.876,572.852 720.5,573.5 Z"/></g>
<g><path style="opacity:1" fill="#353535" d="M 14.5,977.5 C 15.9168,978.892 18.2501,979.892 21.5,980.5C 22.1667,980.167 22.8333,979.833 23.5,979.5C 24.9842,981.074 26.6508,982.407 28.5,983.5C 28.3333,983.833 28.1667,984.167 28,984.5C 23.598,982.866 19.098,981.533 14.5,980.5C 14.5,979.5 14.5,978.5 14.5,977.5 Z"/></g>
</svg>
