<svg xmlns="http://www.w3.org/2000/svg" viewBox="0 0 127.14 96.36" fill="#5865F2">
    <path d="M107.7,8.07A105.15,105.15,0,0,0,77.26,0a77.19,77.19,0,0,0-3.3,6.83A96.67,96.67,0,0,0,53.22,6.83,77.19,77.19,0,0,0,49.88,0,105.15,105.15,0,0,0,19.44,8.07C3.66,31.58-1.86,54.65,1,77.53A105.73,105.73,0,0,0,32,96.36a74.37,74.37,0,0,0,6.72-10.93,68.6,68.6,0,0,1-10.64-5.12c.91-.66,1.8-1.34,2.65-2a75.58,75.58,0,0,0,72.76,0c.85.69,1.74,1.37,2.65,2a68.42,68.42,0,0,1-10.64,5.12,74.74,74.74,0,0,0,6.72,10.93,105.73,105.73,0,0,0,31-18.83C130.1,49.22,123.32,26.42,107.7,8.07ZM42.45,65.69C36.18,65.69,31,60,31,53S36.18,40.36,42.45,40.36,53.93,46,53.76,53,48.72,65.69,42.45,65.69Zm42.24,0C78.41,65.69,73.24,60,73.24,53S78.41,40.36,84.69,40.36,96.17,46,96,53,91,65.69,84.69,65.69Z"/>
</svg>
